<svg width="32" height="32" viewBox="0 0 32 32" fill="none" xmlns="http://www.w3.org/2000/svg">
<path d="M27.0613 13.0615L17.0613 23.0615C16.922 23.2013 16.7564 23.3123 16.574 23.388C16.3917 23.4637 16.1962 23.5027 15.9988 23.5027C15.8014 23.5027 15.6059 23.4637 15.4236 23.388C15.2413 23.3123 15.0757 23.2013 14.9363 23.0615L4.93632 13.0615C4.65453 12.7797 4.49622 12.3975 4.49622 11.999C4.49622 11.6005 4.65453 11.2183 4.93632 10.9365C5.21811 10.6547 5.6003 10.4964 5.99882 10.4964C6.39733 10.4964 6.77953 10.6547 7.06132 10.9365L16.0001 19.8752L24.9388 10.9352C25.2206 10.6534 25.6028 10.4951 26.0013 10.4951C26.3998 10.4951 26.782 10.6534 27.0638 10.9352C27.3456 11.217 27.5039 11.5992 27.5039 11.9977C27.5039 12.3962 27.3456 12.7784 27.0638 13.0602L27.0613 13.0615Z" fill="#82D7FF"/>
</svg>
