<svg width="310" height="68" viewBox="0 0 310 68" fill="none" xmlns="http://www.w3.org/2000/svg">
<path d="M114.021 33.9762C114.021 44.3847 114.021 54.7683 114.021 65.1768C114.021 65.6011 114.206 66.1003 113.909 66.3999C113.427 66.8991 112.649 67.548 111.944 67.573C111.24 67.6229 110.275 67.0738 109.719 66.6245C109.348 66.325 109.46 65.7509 109.46 65.3016C109.46 44.4347 109.46 23.5428 109.46 2.67584C109.46 2.22656 109.348 1.65247 109.719 1.35294C110.275 0.903652 111.24 0.354523 111.944 0.379483C112.649 0.404444 113.427 1.05342 113.946 1.55262C114.243 1.85215 114.058 2.35136 114.058 2.77569C114.021 13.1842 114.021 23.5677 114.021 33.9762Z" fill="#82D7FF"/>
<path d="M251.926 34.0262C251.926 43.0369 251.926 52.0726 251.926 61.0833C251.926 61.5077 252.112 62.0069 251.852 62.3064C251.37 62.8056 250.665 63.4796 249.961 63.5295C249.256 63.5794 248.218 63.0552 247.699 62.6059C247.328 62.2815 247.402 61.6574 247.402 61.1582C247.402 43.0369 247.402 24.9157 247.402 6.79438C247.402 6.5947 247.402 6.37006 247.402 6.17037C247.476 4.99723 248.329 4.3233 249.738 4.29834C251.11 4.29834 251.963 4.99723 251.963 6.19533C251.963 12.1858 251.963 18.1763 251.926 24.1419C251.889 27.4616 251.926 30.7315 251.926 34.0262Z" fill="#82D7FF"/>
<path d="M150.323 34.126C150.323 42.7373 150.323 51.3237 150.323 59.9351C150.323 61.8321 149.693 62.506 147.987 62.481C146.319 62.4561 145.762 61.8321 145.762 59.96C145.762 42.6624 145.762 25.3898 145.762 8.09222C145.762 7.59301 145.577 6.99396 145.948 6.61956C146.43 6.14531 147.357 5.5213 148.024 5.54626C148.803 5.59618 149.656 6.19523 150.212 6.69444C150.509 6.969 150.323 7.49317 150.323 7.9175C150.323 16.6537 150.323 25.3898 150.323 34.126Z" fill="#82D7FF"/>
<path d="M26.9167 33.9762C26.9167 42.4129 26.9167 50.8495 26.9167 59.2861C26.9167 61.2081 26.3234 61.9319 24.6918 61.9319C23.0602 61.9569 22.3557 61.1582 22.3557 59.336C22.3557 42.4129 22.3557 25.5146 22.3557 8.59147C22.3557 6.74439 23.0602 5.97062 24.7289 5.99558C26.3234 6.02054 26.9537 6.74439 26.9537 8.54154C26.9167 17.0281 26.9167 25.5146 26.9167 33.9762Z" fill="#82D7FF"/>
<path d="M106.753 34.0012C106.753 42.6874 106.753 51.3986 106.753 60.0849C106.753 60.5092 106.938 61.0333 106.642 61.3079C106.122 61.7822 105.232 62.4311 104.565 62.3812C103.786 62.3563 102.933 61.7322 102.34 61.258C102.043 61.0084 102.266 60.4593 102.266 60.0349C102.266 42.6125 102.266 25.1652 102.266 7.7428C102.266 7.618 102.266 7.4932 102.266 7.36839C102.192 6.32005 102.711 5.54628 104.454 5.49636C105.937 5.44644 106.753 6.12037 106.753 7.44327C106.753 8.99082 106.753 10.5134 106.753 12.061C106.753 19.3744 106.753 26.6878 106.753 34.0012Z" fill="#82D7FF"/>
<path d="M121.252 33.9762C121.252 42.6375 121.252 51.2738 121.252 59.9351C121.252 60.3594 121.474 60.8836 121.177 61.1582C120.658 61.6823 119.842 62.3812 119.101 62.3812C118.359 62.4062 117.469 61.7572 116.839 61.283C116.542 61.0583 116.728 60.5591 116.728 60.1847C116.728 42.7124 116.728 25.2401 116.728 7.76778C116.728 7.39337 116.542 6.89416 116.839 6.66952C117.469 6.19527 118.359 5.5463 119.101 5.57126C119.842 5.59622 120.658 6.29511 121.177 6.79432C121.474 7.06888 121.252 7.59305 121.252 8.01738C121.252 16.6787 121.252 25.315 121.252 33.9762Z" fill="#82D7FF"/>
<path d="M244.695 33.9762C244.695 41.7389 244.695 49.5266 244.695 57.2893C244.695 57.7385 244.918 58.3126 244.621 58.6371C244.176 59.1363 243.323 59.8103 242.656 59.8103C241.84 59.8103 240.987 59.2112 240.32 58.7619C240.023 58.5622 240.208 58.0381 240.208 57.6637C240.208 41.8637 240.208 26.0637 240.208 10.2638C240.208 9.88938 240.023 9.39017 240.32 9.16553C240.913 8.71624 241.729 8.11719 242.47 8.11719C243.175 8.11719 244.065 8.69128 244.584 9.19049C244.918 9.49001 244.695 10.0641 244.695 10.5384C244.695 18.351 244.695 26.1636 244.695 33.9762Z" fill="#82D7FF"/>
<path d="M34.1475 33.9763C34.1475 41.4145 34.1475 48.8527 34.1475 56.2909C34.1475 56.7153 34.3329 57.2145 34.0734 57.514C33.5913 58.0132 32.8126 58.6372 32.108 58.6871C31.3664 58.737 30.4023 58.2129 29.8461 57.7636C29.4753 57.4391 29.6236 56.8151 29.6236 56.3159C29.6236 41.4395 29.6236 26.563 29.6236 11.6866C29.6236 11.1874 29.4753 10.5634 29.8461 10.2389C30.3652 9.78962 31.3293 9.26545 32.071 9.29041C32.7755 9.31537 33.5542 9.93938 34.0734 10.4386C34.37 10.7381 34.1846 11.2373 34.1846 11.6617C34.1475 19.0749 34.1475 26.5381 34.1475 33.9763Z" fill="#82D7FF"/>
<path d="M124.07 33.9762C124.07 27.4116 124.07 20.847 124.07 14.2824C124.07 13.8581 123.884 13.3589 124.181 13.0593C124.626 12.5851 125.331 11.9361 125.998 11.9112C126.777 11.8862 127.741 12.3355 128.297 12.7848C128.705 13.1093 128.594 13.7333 128.594 14.2325C128.594 27.4116 128.594 40.5907 128.594 53.7698C128.594 54.1941 128.742 54.7183 128.445 54.9929C127.852 55.4921 126.999 56.0412 126.183 56.1411C125.034 56.2908 124.292 55.6668 124.144 54.8431C124.07 54.3439 124.07 53.8447 124.07 53.3455C124.07 46.8558 124.07 40.416 124.07 33.9762Z" fill="#82D7FF"/>
<path d="M157.554 33.9761C157.554 40.6655 157.554 47.3549 157.517 54.0693C157.517 54.6434 157.295 55.3672 156.738 55.7416C156.256 56.0411 154.884 56.1909 154.439 55.9663C153.735 55.5919 153.142 54.843 153.104 54.269C152.993 48.8525 153.03 43.4611 153.03 38.0447C153.03 30.1572 153.03 22.2447 153.03 14.3572C153.03 14.0327 153.03 13.6833 153.03 13.3588C153.104 12.4353 153.809 11.8612 155.218 11.8362C156.701 11.8112 157.443 12.4103 157.517 13.4087C157.517 13.7332 157.517 14.0826 157.517 14.4071C157.554 20.9218 157.554 27.4365 157.554 33.9761Z" fill="#82D7FF"/>
<path d="M94.9238 33.8514C94.9238 27.2868 94.9238 20.7222 94.9238 14.1576C94.9238 13.7332 94.7755 13.1841 95.1092 12.9595C95.7396 12.4852 96.6667 11.9111 97.4454 11.9111C98.1128 11.9111 98.8545 12.635 99.3736 13.1092C99.6332 13.3588 99.4848 13.8331 99.4848 14.2075C99.4848 27.3367 99.4848 40.4908 99.4848 53.62C99.4848 55.3922 98.8545 56.141 97.26 56.141C95.6284 56.166 94.9238 55.3673 94.9238 53.5452C94.9238 46.9806 94.9238 40.416 94.9238 33.8514Z" fill="#82D7FF"/>
<path d="M259.194 34.1259C259.194 40.4908 259.194 46.8308 259.194 53.1957C259.194 53.5202 259.194 53.8697 259.194 54.1941C259.12 55.3922 258.304 56.0662 256.858 55.9913C255.263 55.8914 254.633 55.2175 254.67 54.2191C254.67 53.0959 254.67 51.9727 254.67 50.8494C254.67 38.6687 254.67 26.513 254.67 14.3323C254.67 14.0827 254.67 13.8331 254.67 13.5835C254.744 12.61 255.449 11.986 256.932 11.9611C258.415 11.9611 259.157 12.5601 259.194 13.5585C259.231 15.8798 259.194 18.2012 259.194 20.5475C259.194 25.0653 259.194 29.5831 259.194 34.1259Z" fill="#82D7FF"/>
<path d="M15.1248 33.8514C15.1248 28.5348 15.1248 23.1933 15.1248 17.8767C15.1248 17.5522 15.1248 17.2028 15.1248 16.8783C15.199 15.8799 15.9777 15.2808 17.4238 15.3058C18.7958 15.3308 19.5745 15.9049 19.5745 16.8284C19.5745 28.2603 19.5745 39.6922 19.5745 51.149C19.5745 52.1474 18.6475 52.7215 17.2013 52.6466C15.6068 52.5717 15.0877 51.8229 15.0877 50.8245C15.1619 45.1585 15.1248 39.5174 15.1248 33.8514Z" fill="#82D7FF"/>
<path d="M36.9286 33.9763C36.9286 28.8594 36.9286 23.7425 36.9286 18.6506C36.9286 17.8518 36.9286 17.0531 38.3748 16.7286C40.1547 16.3542 41.4526 17.0781 41.4896 18.5757C41.5267 21.7457 41.4896 24.8907 41.4896 28.0607C41.4896 35.0746 41.4896 42.1134 41.4896 49.1273C41.4896 49.5266 41.6009 50.1007 41.2301 50.3254C40.5626 50.7497 39.5614 51.2489 38.7827 51.224C38.1523 51.199 37.1882 50.4502 37.0399 49.951C36.7803 48.9026 36.9286 47.8044 36.9286 46.7311C36.9657 42.4628 36.9657 38.2196 36.9286 33.9763Z" fill="#82D7FF"/>
<path d="M164.859 34.101C164.859 38.5939 164.859 43.0868 164.859 47.5547C164.859 47.8792 164.896 48.2287 164.822 48.5531C164.637 49.4517 163.895 50.0258 162.486 49.9759C161.188 49.926 160.484 49.4018 160.335 48.5531C160.298 48.2287 160.298 47.8792 160.298 47.5547C160.298 38.4941 160.298 29.4334 160.298 20.3728C160.298 19.9984 160.113 19.5241 160.409 19.2745C160.966 18.7753 161.707 18.1513 162.523 18.0016C163.747 17.8019 164.563 18.4259 164.785 19.2745C164.896 19.649 164.859 20.0234 164.859 20.3978C164.859 24.9655 164.859 29.5333 164.859 34.101Z" fill="#82D7FF"/>
<path d="M135.75 33.9762C135.75 38.7437 135.75 43.5361 135.75 48.3035C135.75 49.7762 135.046 50.4501 133.526 50.4251C132.042 50.4251 131.227 49.6763 131.227 48.3035C131.227 38.7187 131.227 29.1089 131.227 19.5241C131.227 18.2511 132.042 17.5273 133.526 17.5273C134.972 17.5023 135.75 18.1763 135.75 19.5241C135.75 24.3415 135.75 29.1588 135.75 33.9762Z" fill="#82D7FF"/>
<path d="M48.6463 33.9762C48.6463 37.7702 48.6463 41.5393 48.6463 45.3332C48.6463 46.3566 48.0159 47.0805 46.4214 47.0805C44.864 47.0805 44.1595 46.3566 44.1224 45.3582C44.1224 45.0587 44.1224 44.7841 44.1224 44.4846C44.1224 40.6656 44.1224 36.8217 44.1224 33.0028C44.1224 29.8328 44.1224 26.6878 44.1224 23.5178C44.1224 23.2183 44.1224 22.9437 44.1224 22.6442C44.1224 21.6208 44.864 20.9219 46.4214 20.897C48.0159 20.872 48.6834 21.6208 48.6834 22.6442C48.6463 26.4132 48.6463 30.1823 48.6463 33.9762Z" fill="#82D7FF"/>
<path d="M143.092 34.0011C143.092 37.4457 143.092 40.8902 143.092 44.3347C143.092 45.1834 142.87 45.9322 141.572 46.2567C139.978 46.6561 138.606 45.9322 138.606 44.6343C138.569 41.8387 138.606 39.0681 138.606 36.2725C138.606 32.0043 138.606 27.7111 138.606 23.4429C138.606 22.6441 138.791 21.9452 140.089 21.6207C141.72 21.2214 143.13 21.9951 143.13 23.368C143.13 26.9373 143.092 30.4817 143.092 34.0011Z" fill="#82D7FF"/>
<path d="M203.906 33.8514C203.906 30.4567 203.906 27.0372 203.906 23.6425C203.906 22.2947 204.648 21.6207 206.057 21.5708C207.54 21.5459 208.393 22.2697 208.393 23.6425C208.393 30.5316 208.43 37.4457 208.356 44.3347C208.356 44.9338 207.948 45.6576 207.392 46.082C207.021 46.3565 205.686 46.4314 205.241 46.2068C204.573 45.8573 203.98 45.1584 203.98 44.6093C203.832 40.99 203.906 37.4207 203.906 33.8514Z" fill="#82D7FF"/>
<path d="M237.427 34.0511C237.427 37.4457 237.464 40.8653 237.427 44.2599C237.427 45.6826 236.13 46.4065 234.424 45.9822C232.978 45.6327 232.903 44.809 232.903 43.9354C232.903 37.7951 232.903 31.6549 232.903 25.4896C232.903 24.9405 232.903 24.4163 232.903 23.8672C232.941 22.5193 233.645 21.8953 235.165 21.8704C236.686 21.8454 237.427 22.4445 237.464 23.8173C237.427 27.2369 237.427 30.6315 237.427 34.0511Z" fill="#82D7FF"/>
<path d="M201.236 34.0011C201.236 36.8716 201.236 39.742 201.236 42.6125C201.236 43.0368 201.236 43.4611 201.088 43.8355C200.791 44.6842 199.864 45.2333 198.64 44.9588C197.824 44.784 196.86 44.1351 196.749 43.5859C196.452 42.4627 196.638 41.2646 196.638 40.1164C196.638 35.0495 196.638 29.9825 196.638 24.8906C196.638 23.4179 197.713 22.6691 199.456 22.9686C200.976 23.2182 201.236 24.0169 201.236 24.8906C201.236 27.9357 201.236 30.9809 201.236 34.0011Z" fill="#82D7FF"/>
<path d="M92.2169 34.101C92.2169 37.2959 92.2169 40.5158 92.2169 43.7107C92.2169 45.0087 91.4012 45.7325 89.9179 45.6576C88.1751 45.5828 87.693 44.834 87.693 43.7607C87.693 37.221 87.693 30.7063 87.693 24.1667C87.693 23.1184 88.1751 22.3446 89.9179 22.2697C91.4012 22.2198 92.2169 22.9187 92.2169 24.2166C92.254 27.5364 92.2169 30.8311 92.2169 34.101Z" fill="#82D7FF"/>
<path d="M215.698 33.9763C215.698 36.8467 215.698 39.7172 215.698 42.5876C215.698 42.8871 215.735 43.1617 215.698 43.4612C215.586 44.4097 214.882 45.0587 213.362 45.0337C211.841 45.0337 211.137 44.3848 211.137 43.4113C211.137 40.5908 211.137 37.7703 211.137 34.9248C211.137 31.5551 211.174 28.1854 211.137 24.8407C211.137 23.7924 211.582 23.0186 213.324 22.9437C214.845 22.8938 215.661 23.5678 215.661 24.8657C215.735 27.9109 215.698 30.9311 215.698 33.9763Z" fill="#82D7FF"/>
<path d="M283.705 33.8515C283.705 31.3554 283.705 28.8594 283.705 26.3883C283.705 25.0155 284.595 24.2667 286.041 24.2916C287.45 24.3166 288.266 25.0404 288.266 26.3384C288.266 31.4053 288.266 36.4723 288.266 41.5393C288.266 41.714 288.266 41.8638 288.266 42.0385C288.155 42.962 287.487 43.6859 286.004 43.6859C284.409 43.6859 283.705 42.962 283.705 41.9636C283.705 39.2429 283.742 36.5472 283.705 33.8515C283.742 33.8515 283.742 33.8515 283.705 33.8515Z" fill="#82D7FF"/>
<path d="M261.975 33.9013C261.975 31.3303 261.975 28.7594 261.975 26.1885C261.975 25.1402 262.494 24.3913 264.2 24.2915C265.498 24.2166 266.499 24.9904 266.536 26.1386C266.573 31.3553 266.573 36.597 266.536 41.8137C266.536 42.9619 265.535 43.7357 264.2 43.6608C262.494 43.561 261.975 42.7872 262.012 41.7388C262.012 39.143 261.975 36.5221 261.975 33.9013Z" fill="#82D7FF"/>
<path d="M193.931 33.9762C193.931 36.2476 193.931 38.544 193.931 40.8154C193.931 42.1882 193.078 42.937 191.632 42.937C190.26 42.937 189.407 42.1882 189.407 40.9152C189.407 36.3225 189.407 31.7048 189.407 27.1121C189.407 25.8391 190.223 25.0653 191.595 25.0404C193.041 25.0154 193.931 25.8141 193.931 27.137C193.931 29.4084 193.931 31.6798 193.931 33.9762Z" fill="#82D7FF"/>
<path d="M222.929 34.0262C222.929 36.3475 222.929 38.6938 222.929 41.0151C222.929 42.1883 222.039 42.9121 220.704 42.9371C219.369 42.9371 218.442 42.2132 218.442 41.0401C218.442 36.3475 218.442 31.63 218.442 26.9375C218.442 25.7643 219.332 25.0155 220.667 25.0155C222.002 25.0155 222.929 25.7394 222.929 26.9125C222.929 29.2837 222.929 31.655 222.929 34.0262Z" fill="#82D7FF"/>
<path d="M12.3437 33.9762C12.3437 35.8482 12.3437 37.7202 12.3437 39.5923C12.3437 40.6156 11.8987 41.4393 10.1559 41.4893C8.67267 41.5392 7.8198 40.8153 7.8198 39.5423C7.78272 35.8482 7.78272 32.1541 7.8198 28.4599C7.8198 27.162 8.67267 26.488 10.1559 26.488C11.6392 26.488 12.3437 27.112 12.3437 28.5098C12.3808 30.3319 12.3437 32.1541 12.3437 33.9762Z" fill="#82D7FF"/>
<path d="M51.4275 33.9762C51.4275 32.229 51.3904 30.5067 51.4275 28.7595C51.4646 27.5614 52.3175 26.9124 53.7636 26.9873C55.3581 27.0622 55.9514 27.7611 55.9514 28.7844C55.9514 32.2539 55.9514 35.7484 55.9514 39.2179C55.9514 40.2163 55.3581 40.9152 53.7636 40.9901C52.3175 41.065 51.4646 40.416 51.4275 39.2179C51.4275 37.4457 51.4275 35.7234 51.4275 33.9762Z" fill="#82D7FF"/>
<path d="M84.949 34.0012C84.949 35.7484 84.949 37.4956 84.949 39.2429C84.949 40.2662 84.3557 40.9651 82.7241 40.9651C81.1296 40.9651 80.4622 40.2912 80.4622 39.2678C80.4622 35.7734 80.4622 32.2789 80.4622 28.7844C80.4622 27.5614 81.315 26.9124 82.7612 26.9873C84.3928 27.0622 84.949 27.7361 84.9119 28.7595C84.949 30.5067 84.949 32.2539 84.949 34.0012Z" fill="#82D7FF"/>
<path d="M276.511 33.9511C276.511 32.4285 276.511 30.881 276.511 29.3584C276.511 28.335 277.104 27.6112 278.699 27.5862C280.293 27.5613 281.035 28.2602 281.035 29.2835C281.072 32.4285 281.072 35.5736 281.035 38.7435C281.035 39.692 280.293 40.366 278.81 40.3909C277.253 40.3909 276.511 39.742 276.511 38.6936C276.511 37.0961 276.511 35.5236 276.511 33.9511Z" fill="#82D7FF"/>
<path d="M295.497 34.076C295.497 35.5986 295.497 37.1462 295.497 38.6688C295.497 39.7171 294.755 40.3661 293.198 40.3411C291.752 40.3162 291.01 39.6921 291.01 38.6937C291.01 35.5487 291.01 32.3787 291.01 29.2337C291.01 28.1854 291.752 27.5364 293.346 27.5614C294.792 27.5863 295.534 28.2103 295.534 29.2088C295.497 30.8561 295.497 32.4786 295.497 34.076Z" fill="#82D7FF"/>
<path d="M58.7325 33.9013C58.7325 33.0277 58.6954 32.1541 58.7325 31.2805C58.8066 30.4069 59.6595 29.7579 60.8461 29.9077C61.7361 30.0075 63.0339 30.6814 63.1081 31.1806C63.3676 33.0277 63.2935 34.8998 63.1452 36.7468C63.071 37.5705 62.1069 38.0947 60.8461 38.0448C59.5112 37.9948 58.7325 37.4208 58.6954 36.4972C58.6954 35.6486 58.7325 34.775 58.7325 33.9013Z" fill="#82D7FF"/>
<path d="M172.053 34.0261C172.053 34.8249 172.09 35.5986 172.053 36.3974C172.016 37.271 171.274 37.7951 170.014 37.8451C168.604 37.9199 167.715 37.3958 167.64 36.4972C167.529 34.8498 167.529 33.1775 167.64 31.5301C167.715 30.6315 168.604 30.0824 169.977 30.1323C171.349 30.1822 172.09 30.7313 172.09 31.6798C172.09 32.4536 172.053 33.2274 172.053 34.0261Z" fill="#82D7FF"/>
<path d="M230.159 34.0511C230.159 34.8498 230.196 35.6236 230.159 36.4223C230.085 37.3708 229.232 37.87 227.897 37.87C226.637 37.87 225.784 37.3958 225.747 36.4972C225.672 34.8498 225.672 33.1774 225.747 31.5301C225.784 30.6564 226.637 30.1572 227.897 30.1572C229.232 30.1572 230.085 30.6564 230.159 31.6049C230.233 32.3787 230.159 33.2024 230.159 34.0511Z" fill="#82D7FF"/>
<path d="M73.2684 33.9263C73.2684 33.3022 73.0088 32.6033 73.3425 32.0792C73.7134 31.53 74.5291 30.931 75.3449 30.7812C76.5686 30.5566 77.5698 31.1556 77.6811 31.9793C77.8294 33.3022 77.8294 34.6251 77.6811 35.948C77.5698 36.7717 76.6428 37.271 75.3449 37.221C74.0471 37.1711 73.3055 36.6719 73.2313 35.7983C73.1942 35.1743 73.2313 34.5503 73.2684 33.9263C73.2313 33.9263 73.2313 33.9263 73.2684 33.9263Z" fill="#82D7FF"/>
<path d="M0.626054 33.9263C0.626054 33.3522 0.588973 32.7782 0.626054 32.1791C0.700217 31.3055 1.40476 30.7813 2.70261 30.7314C4.00045 30.6565 4.92749 31.1557 5.03873 31.9794C5.22414 33.3023 5.22414 34.6252 5.03873 35.9481C4.92749 36.7718 4.03753 37.271 2.73969 37.2211C1.44184 37.1712 0.737298 36.647 0.663135 35.7734C0.588973 35.1744 0.663135 34.5503 0.626054 33.9263Z" fill="#82D7FF"/>
<path d="M273.693 34.0761C273.693 34.3757 273.693 34.6502 273.693 34.9498C273.656 35.8983 272.877 36.4224 271.542 36.4723C270.207 36.5223 269.429 35.9482 269.243 35.1494C269.058 34.4256 269.058 33.6518 269.243 32.903C269.429 32.0294 270.244 31.4303 271.616 31.5052C272.988 31.5551 273.693 32.1542 273.693 33.0777C273.693 33.4022 273.693 33.7267 273.693 34.0761Z" fill="#82D7FF"/>
<path d="M298.278 33.9761C298.278 32.204 298.945 31.4801 300.54 31.4801C302.097 31.4801 302.839 32.2788 302.839 33.9761C302.839 34.1758 302.839 34.4005 302.839 34.6002C302.764 35.7733 301.874 36.5221 300.54 36.4722C298.797 36.4223 298.278 35.6485 298.278 34.6002C298.278 34.4005 298.278 34.1758 298.278 33.9761Z" fill="#82D7FF"/>
<path d="M179.432 34.0761C179.395 35.6735 177.912 36.5222 176.169 35.9731C174.723 35.5238 174.945 34.6502 174.908 33.8265C174.871 33.0527 174.982 32.3288 176.243 31.9544C178.023 31.4303 179.469 32.3538 179.432 34.0761Z" fill="#82D7FF"/>
<path d="M70.4503 34.0262C70.4503 35.1993 69.5974 35.8733 68.1512 35.8483C66.7792 35.8234 65.9263 35.0995 65.9634 33.9513C65.9634 32.8281 66.9275 32.0793 68.2625 32.1042C69.6715 32.1292 70.4503 32.8281 70.4503 34.0262Z" fill="#82D7FF"/>
<path d="M186.589 33.9512C186.477 34.8747 185.81 35.4238 184.438 35.4738C183.14 35.5237 182.028 34.7998 182.139 33.9262C182.25 33.0276 182.992 32.4785 184.401 32.4785C185.81 32.5035 186.477 33.0526 186.589 33.9512Z" fill="#82D7FF"/>
<path d="M309.995 34.1758C309.884 34.9246 309.18 35.4488 307.771 35.4738C306.436 35.4987 305.36 34.7749 305.509 33.9013C305.657 33.0027 306.436 32.4785 307.845 32.4785C309.106 32.4785 310.033 33.1524 309.995 34.1758Z" fill="#82D7FF"/>
</svg>
